<!DOCTYPE svg PUBLIC "-//W3C//DTD SVG 20010904//EN" "http://www.w3.org/TR/2001/REC-SVG-20010904/DTD/svg10.dtd">
<svg version="1.0" xmlns="http://www.w3.org/2000/svg" width="147px" height="64px" viewBox="0 0 1470 640" preserveAspectRatio="xMidYMid meet">
<g id="layer101" fill="#2e2e2e" stroke="none">
 <path d="M0 320 l0 -320 735 0 735 0 0 320 0 320 -735 0 -735 0 0 -320z"/>
 </g>
<g id="layer102" fill="#fbfbfb" stroke="none">
 <path d="M0 320 l0 -320 735 0 735 0 0 320 0 320 -735 0 -735 0 0 -320z m295 180 c33 -16 91 -58 130 -94 l70 -66 61 0 61 0 -1 86 c-1 74 2 87 18 100 27 19 31 18 68 -16 l33 -30 -31 17 c-48 26 -64 8 -64 -76 0 -96 33 -204 80 -264 13 -16 19 -32 14 -37 -15 -13 -150 -40 -204 -40 -59 0 -107 18 -135 50 -17 20 -14 20 18 -4 35 -27 41 -28 120 -23 45 3 99 10 120 17 l38 11 -103 99 c-96 93 -106 99 -145 100 -23 0 -44 4 -47 9 -4 5 12 7 36 4 l43 -4 -61 59 c-81 78 -141 107 -221 107 -51 0 -66 -4 -86 -23 -29 -27 -37 -59 -25 -93 7 -18 6 -21 -2 -13 -6 6 -14 30 -17 53 -6 46 13 86 50 101 35 15 117 1 182 -30z m667 30 c48 -14 94 -60 102 -104 8 -42 -9 -86 -64 -172 -53 -80 -54 -126 -3 -153 43 -22 111 18 96 57 -4 10 -2 13 5 8 17 -10 15 -52 -4 -70 -33 -33 -115 -12 -140 35 -24 47 -17 80 36 164 42 66 50 87 50 126 0 40 -4 51 -31 73 -25 22 -41 26 -91 26 -53 0 -63 -3 -89 -29 -31 -32 -39 -76 -16 -101 6 -8 2 -6 -10 4 -29 25 -31 85 -4 110 36 33 100 43 163 26z m188 -6 c11 -12 11 -15 -1 -12 -20 4 -14 -53 11 -105 24 -49 24 -48 6 -41 -17 7 -61 136 -53 157 8 21 21 22 37 1z m96 -32 c9 -20 17 -46 20 -57 2 -11 6 -32 10 -47 4 -21 2 -28 -9 -28 -8 0 -15 10 -15 23 0 12 -9 50 -21 84 -12 34 -21 65 -21 68 0 16 22 -11 36 -43z m130 26 c10 -13 12 -17 4 -10 -8 6 -18 12 -22 12 -15 0 -8 -58 12 -105 17 -39 18 -47 5 -51 -8 -4 -23 -3 -32 1 -17 8 -17 8 0 12 10 3 16 10 13 16 -3 7 -12 36 -21 65 -13 42 -14 56 -5 67 17 20 24 19 46 -7z m-71 -118 c10 -11 16 -20 13 -20 -3 0 -13 9 -23 20 -10 11 -16 20 -13 20 3 0 13 -9 23 -20z m-95 -112 l23 -33 -26 24 c-15 14 -27 28 -27 33 0 14 5 9 30 -24z m-843 -105 c-4 -3 -7 0 -7 7 0 7 3 10 7 7 3 -4 3 -10 0 -14z"/>
 <path d="M510 321 c0 -10 164 -163 182 -170 5 -2 -2 19 -15 45 -14 27 -30 68 -37 92 l-13 42 -59 0 c-32 0 -58 -4 -58 -9z"/>
 </g>

</svg>